<?xml version="1.0" encoding="utf-8"?>
<!-- Generator: Adobe Illustrator 16.0.0, SVG Export Plug-In . SVG Version: 6.00 Build 0)  -->
<!DOCTYPE svg PUBLIC "-//W3C//DTD SVG 1.1//EN" "http://www.w3.org/Graphics/SVG/1.1/DTD/svg11.dtd">
<svg version="1.1" id="Layer_1" xmlns="http://www.w3.org/2000/svg" xmlns:xlink="http://www.w3.org/1999/xlink" x="0px" y="0px"
	 width="226.771px" height="85.039px" viewBox="0 0 226.771 85.039" enable-background="new 0 0 226.771 85.039"
	 xml:space="preserve">
<g>
	<g>
		<path fill="#487EEA" d="M6.837,71.176c1.668-0.27,3.186-0.759,4.52-1.456c1.288-0.685,2.254-1.484,2.877-2.377
			c0.662,0.883,1.68,1.688,3.03,2.399c1.389,0.724,2.839,1.208,4.311,1.434l0.19,0.029l0.782-2.221l-0.26-0.056
			c-1.878-0.4-3.429-1.014-4.614-1.823c-1.209-0.833-1.894-1.791-2.037-2.852h5.87v-2.256H6.797v2.256h5.874
			c-0.133,1.109-0.746,2.037-1.875,2.833c-1.129,0.808-2.707,1.422-4.693,1.821L5.839,68.96l0.806,2.247L6.837,71.176z"/>
		<polygon fill="#487EEA" points="4.921,75.2 12.755,75.2 12.755,81.515 15.55,81.515 15.55,75.2 23.751,75.2 23.751,72.943 
			4.921,72.943 		"/>
		<rect x="24.64" y="61.997" fill="#487EEA" width="2.113" height="19.373"/>
		<rect x="1.772" y="61.997" fill="#487EEA" width="2.111" height="19.373"/>
		<rect x="44.548" y="61.917" fill="#487EEA" width="2.907" height="10.366"/>
		<polygon fill="#487EEA" points="40.063,72.283 42.949,72.283 42.949,61.917 40.063,61.917 40.063,64.581 35.823,64.581 
			35.823,66.934 40.063,66.934 		"/>
		<path fill="#487EEA" d="M47.251,73.803c-0.233-0.261-0.621-0.388-1.184-0.388H32.062v2.353h11.83c0.459,0,0.656,0.208,0.656,0.698
			v5.482h2.996v-6.932C47.577,74.458,47.481,74.062,47.251,73.803z"/>
		<path fill="#487EEA" d="M39.382,72.283v-2.441h-5.056c-0.593,0-1.114-0.029-1.55-0.088c-0.414-0.045-0.592-0.268-0.592-0.744
			v-7.092h-2.886v7.713c0,0.783,0.138,1.356,0.42,1.755c0.319,0.455,0.884,0.727,1.669,0.806c0.467,0.062,0.999,0.091,1.586,0.091
			H39.382z"/>
		<path fill="#487EEA" d="M51.382,72.543c1.885-0.463,3.543-1.2,4.932-2.189c1.243-0.888,2.172-1.915,2.768-3.062
			c0.645,1.154,1.654,2.212,3.013,3.152c1.438,0.988,3.026,1.688,4.719,2.077l0.188,0.043l1.002-2.3l-0.244-0.079
			c-2.264-0.738-4.055-1.754-5.324-3.021c-1.295-1.291-1.951-2.762-1.951-4.373v-0.875h-2.952v0.809c0,1.729-0.62,3.238-1.843,4.486
			c-1.238,1.265-3.027,2.257-5.316,2.951l-0.255,0.078l1.079,2.348L51.382,72.543z"/>
		<rect x="49.242" y="75.79" fill="#487EEA" width="19.531" height="2.353"/>
		<rect x="69.884" y="75.79" fill="#487EEA" width="19.532" height="2.353"/>
		<path fill="#487EEA" d="M74.012,73.127h13.351v-2.353H75.521c-0.419,0-0.589-0.164-0.589-0.566v-1.609h12.074v-2.354H74.933
			v-1.975h12.341v-2.354H72.025v9.378c0,0.625,0.149,1.09,0.445,1.385C72.771,72.981,73.275,73.127,74.012,73.127z"/>
		<rect x="106.052" y="61.563" fill="#487EEA" width="2.93" height="20.386"/>
		<path fill="#487EEA" d="M98.526,65.239v-0.99h4.484v-2.354H90.981v2.354h4.461v0.987c0,2.292-0.381,4.229-1.131,5.756
			c-0.777,1.57-2.111,3.019-3.963,4.307l-0.213,0.148l1.735,2.004l0.167-0.093c1.172-0.662,2.254-1.56,3.216-2.672
			c0.827-0.978,1.441-1.983,1.833-3c0.43,0.979,1.103,1.986,2.009,3.002c1.02,1.172,2.026,2.025,2.995,2.538l0.17,0.091l1.637-2.012
			l-0.211-0.142C100.263,72.85,98.526,69.51,98.526,65.239z"/>
	</g>
	<g>
		<polygon fill="#E9444A" points="114.47,34.676 129.804,53.53 129.804,15.759 		"/>
		<g>
			<polygon fill="#487EEA" points="177.958,3.091 130.202,3.091 130.202,12.01 147.849,12.01 147.849,53.083 160.004,53.083 
				160.004,12.01 177.958,12.01 			"/>
			<path fill="#487EEA" d="M203.167,11.702h21.832V3.091h-21.832c-8.851,0-15.487,2.148-19.723,6.384
				c-4.24,4.188-6.392,10.722-6.392,19.422c0,4.446,0.668,8.328,1.984,11.541c1.386,3.359,3.52,6.061,6.332,8.024
				c2.595,1.959,5.47,3.275,8.542,3.911c2.148,0.472,5.264,0.711,9.256,0.711h14.689c3.938,0,7.143-3.205,7.143-7.144V23.281
				h-24.521v8.918h12.673v11.657h-9.984c-4.676,0-8.111-1.259-10.211-3.742c-2.077-2.415-3.131-6.396-3.131-11.833
				c0-5.655,1.06-9.877,3.146-12.548C195.121,13.059,198.552,11.702,203.167,11.702z"/>
			<polygon fill="#487EEA" points="38.028,37.287 15.553,3.216 15.47,3.091 1.772,3.091 1.772,53.083 12.927,53.083 12.927,16.84 
				36.711,52.958 36.794,53.083 49.49,53.083 49.49,3.091 38.028,3.091 			"/>
			<path fill="#487EEA" d="M87.112,38.435c0.184-1.264,0.274-2.493,0.274-3.759s-0.091-2.496-0.276-3.758
				c-0.402-2.751-1.273-5.16-2.588-7.164c-0.694-1.06-1.5-2.008-2.395-2.818c-2.51-2.274-5.998-4.598-12.841-4.598
				c-5.081,0-9.522,1.59-12.841,4.598c-0.895,0.811-1.701,1.759-2.396,2.818c-1.314,2.003-2.184,4.414-2.587,7.164
				c-0.185,1.265-0.276,2.494-0.276,3.758c0,1.263,0.091,2.493,0.276,3.759c0.403,2.753,1.274,5.163,2.587,7.164
				c0.691,1.056,1.499,2.003,2.396,2.818c3.006,2.726,7.32,4.274,12.824,4.599c0.73,0.042,1.479,0.068,2.251,0.068h15.593v-7.917
				H73.14c-1.424,0-2.709-0.06-3.823-0.18c-1.849-0.198-3.194-0.563-3.995-1.078c-1.255-0.85-2.027-2.61-2.299-5.236h24.055
				L87.112,38.435z M63.023,30.679c0.279-2.619,1.098-4.375,2.437-5.228c0.8-0.513,2.1-0.875,3.795-1.076
				c1.76,0.201,3.059,0.563,3.859,1.077c1.337,0.853,2.156,2.609,2.436,5.228H63.023z"/>
			<polygon fill="#487EEA" points="120.599,16.208 117.634,16.208 108.957,26.916 100.282,16.208 87.987,16.208 102.811,34.502 
				102.72,34.615 102.811,34.729 87.987,53.023 100.281,53.023 108.957,42.314 117.634,53.023 120.6,53.023 105.686,34.615 			"/>
		</g>
	</g>
</g>
</svg>
